<svg xmlns="http://www.w3.org/2000/svg" xmlns:xlink="http://www.w3.org/1999/xlink" viewBox="0 0 341.65 347.13"><defs><style>.cls-1,.cls-6{fill:none;}.cls-2{fill:#f7a91e;}.cls-3{clip-path:url(#clip-path);}.cls-4{fill:url(#linear-gradient);}.cls-5{fill:#fff;opacity:0.9;}.cls-6{stroke:#fff;stroke-miterlimit:1;stroke-width:5px;}</style><clipPath id="clip-path"><circle class="cls-1" cx="171.32" cy="172.82" r="126.5"/></clipPath><linearGradient id="linear-gradient" x1="141.19" y1="5.49" x2="201.45" y2="347.24" gradientUnits="userSpaceOnUse"><stop offset="0" stop-color="#fff" stop-opacity="0.3"/><stop offset="0.05" stop-color="#fef2de" stop-opacity="0.4"/><stop offset="0.15" stop-color="#fcdca4" stop-opacity="0.58"/><stop offset="0.25" stop-color="#faca74" stop-opacity="0.73"/><stop offset="0.34" stop-color="#f9bb4e" stop-opacity="0.85"/><stop offset="0.44" stop-color="#f8b133" stop-opacity="0.93"/><stop offset="0.54" stop-color="#f7ab23" stop-opacity="0.98"/><stop offset="0.64" stop-color="#f7a91e"/></linearGradient></defs><title>Layer 1</title><g id="Layer_2" data-name="Layer 2"><g id="Layer_1-2" data-name="Layer 1"><circle class="cls-2" cx="171.32" cy="172.82" r="126"/><g class="cls-3"><path class="cls-4" d="M341.65,173.56c0,95.86-76.48,173.57-170.83,173.57S0,269.42,0,173.56A174.52,174.52,0,0,1,44.92,56.25C76.15,21.68,121,0,170.82,0,265.17,0,341.65,77.71,341.65,173.56Z"/></g><path class="cls-5" d="M171.58,84.52h0c-2.49,22.28-5.35,47.08-1.47,73.3h2.21C177,134.84,176.3,110.23,171.58,84.52Z"/><path class="cls-5" d="M95.41,127.36h0c17.42,13.82,36.76,29.28,60.77,39.62l1.14-1.93C140.43,149,119.43,136.71,95.41,127.36Z"/><path class="cls-5" d="M247.36,215.36h0C229.3,202.46,209.24,188,184.77,179l-1.05,2C201.37,196.11,222.94,207.28,247.36,215.36Z"/><path class="cls-5" d="M96.61,221.08h0c19.77-10,41.82-21.14,61.43-38.76l-1.19-1.9C135.34,189,115.35,203,96.61,221.08Z"/><path class="cls-5" d="M249.5,130.85h0c-20.46,8.53-43.27,18-64.14,34.08l1,2C208.49,160,229.47,147.47,249.5,130.85Z"/><path class="cls-5" d="M172.8,261.3h0c1.91-22.33,4.12-47.2-.43-73.31l-2.22.06C166.11,211.15,167.42,235.73,172.8,261.3Z"/><circle class="cls-6" cx="171.32" cy="172.82" r="124"/><circle class="cls-5" cx="171.32" cy="172.82" r="8"/><path class="cls-5" d="M152,208.52h0c4.77-6,10.12-12.74,12.62-21.63l-1-.58C157.73,192,154,199.56,152,208.52Z"/><path class="cls-5" d="M192.5,138.25h0c-4.7,6.1-10,12.87-12.35,21.8l1,.56C187,154.86,190.58,147.24,192.5,138.25Z"/><path class="cls-5" d="M194.42,206.39h0c-3.46-6.88-7.27-14.56-14.28-20.58l-1,.68C181.85,194.21,187.15,200.76,194.42,206.39Z"/><path class="cls-5" d="M211.37,172.93h0c-7.61-1.12-16.09-2.42-25.05-.14V174C194.18,176.21,202.59,175.64,211.37,172.93Z"/><path class="cls-5" d="M148.16,138.53h0c3.51,6.85,7.4,14.49,14.46,20.45l.95-.69C160.83,150.59,155.47,144.09,148.16,138.53Z"/><path class="cls-5" d="M130.34,174.19h0c7.64,1,16.14,2.07,25-.4l0-1.17C147.45,170.54,139.06,171.29,130.34,174.19Z"/></g></g></svg>